PathFileType	4	(X/Y/Z)	D:\TRACE\spot_10-12-23\spot_arm_body_motion_3_8-platform.trc
DataRate	CameraRate	NumFrames	NumMarkers	Units	OrigDataRate	OrigDataStartFrame	OrigNumFrames
100.00	100.00	      67	5	mm	100.00	5251	      7000
Frame#	Time	Left_Front			Right_Front			Left_Aft			Right_Aft			Post			
		X1	Y1	Z1	X2	Y2	Z2	X3	Y3	Z3	X4	Y4	Z4	X5	Y5	Z5	

5251	52.500	-814.33850	30.64700	-635.62000	758.18787	34.70712	-628.72345	-731.26849	-11.45373	501.54575	686.30414	-10.09371	587.91736	-31.19011	779.07947	-926.45007	
5252	52.510	-814.23425	29.55918	-635.72845	758.34796	33.90020	-628.98944	-731.19354	-11.01390	501.49786	686.13416	-9.57972	587.77722	-30.99380	777.64899	-927.66895	
5253	52.520	-814.15717	28.62197	-636.03558	758.39996	33.13249	-629.01923	-730.97913	-10.36717	501.27911	686.29053	-8.61625	587.55530	-31.36845	776.28705	-929.04211	
5254	52.530	-814.15247	27.98065	-636.38068	758.50116	32.07339	-629.37274	-730.92401	-9.65324	501.09030	686.46332	-7.94943	587.27014	-30.91059	775.21527	-930.58276	
5255	52.540	-814.10205	27.04593	-636.40198	758.48303	31.28383	-629.60217	-730.95807	-9.09157	501.01120	686.29968	-7.31548	587.11829	-31.01322	773.90814	-931.84039	
5256	52.550	-814.05878	26.08642	-636.66217	758.51752	30.53190	-629.77252	-730.87524	-8.47614	500.89508	686.21173	-6.64119	586.93732	-31.15552	772.84290	-933.32843	
5257	52.560	-814.03400	25.40387	-636.85742	758.67139	29.63400	-629.98297	-730.78265	-7.89985	500.67288	686.95416	-5.24749	587.06750	-30.80553	771.50098	-934.48938	
5258	52.570	-813.90417	24.54299	-637.22308	758.69897	28.78463	-630.13971	-730.69025	-7.39589	500.46857	686.91663	-4.65015	587.05853	-30.59699	770.45514	-935.50354	
5259	52.580	-813.82245	23.65821	-637.31696	758.75537	27.91214	-630.39471	-730.60071	-6.98340	500.40897	686.91071	-4.20073	586.77020	-30.88944	769.27344	-936.74304	
5260	52.590	-813.79028	22.88436	-637.42230	758.84131	27.31619	-630.56610	-730.58881	-6.48974	500.33316	686.60791	-3.71142	586.76233	-30.68343	768.10620	-937.69708	
5261	52.600	-813.67902	22.13654	-637.68665	758.83069	26.45943	-630.71857	-730.65527	-5.63300	500.08139	686.40125	-3.15257	586.43481	-30.69720	767.11584	-938.50836	
5262	52.610	-813.65637	21.89123	-637.90576	758.97620	25.90501	-630.91638	-730.63702	-5.17496	499.70447	686.62817	-2.65470	586.13525	-30.32055	765.92389	-939.45770	
5263	52.620	-813.65070	20.92426	-637.97662	758.95544	24.95910	-631.14380	-730.32654	-4.84268	499.81311	686.65808	-2.08906	585.98334	-30.60656	764.82123	-940.27454	
5264	52.630	-813.61871	19.64807	-638.27509	759.11841	23.64329	-631.26886	-730.29553	-4.12084	499.38153	686.88739	-1.19737	585.79431	-30.76863	763.73920	-941.34723	
5265	52.640	-813.60077	19.00301	-638.51147	759.23083	23.20961	-631.42389	-730.33075	-3.66315	499.20227	686.77612	-0.69784	585.70355	-30.45288	762.47137	-942.06592	
5266	52.650	-813.52942	18.27362	-638.68665	759.27698	22.73659	-631.79071	-730.38031	-3.11272	499.00299	686.78400	-0.20262	585.55475	-30.15058	761.46307	-942.95209	
5267	52.660	-813.27606	17.54349	-638.74005	759.18939	22.10730	-631.75934	-730.43805	-2.61283	498.90906	686.86090	0.30297	585.34241	-30.28771	760.40564	-944.17041	
5268	52.670	-813.11176	17.06211	-638.88654	759.15771	21.19735	-631.87036	-730.28375	-2.10061	498.70474	686.92963	0.92943	585.05988	-30.47764	759.72076	-945.28601	
5269	52.680	-813.36426	16.74170	-639.17218	759.20947	20.41186	-632.10535	-730.25519	-1.73597	498.62619	687.08575	1.63041	584.97125	-30.34572	758.59717	-946.34851	
5270	52.690	-813.29065	15.60573	-639.36145	759.31616	19.95812	-632.31531	-730.11523	-1.23458	498.43607	687.16974	2.04462	584.76263	-30.29256	757.64783	-947.27863	
5271	52.700	-813.25012	14.88670	-639.50555	759.47662	19.46438	-632.45807	-730.10010	-0.83695	498.22571	687.09351	2.48275	584.57214	-30.09439	756.68726	-948.52722	
5272	52.710	-813.07092	14.15247	-639.64819	759.45776	18.59676	-632.65381	-730.18018	-0.38957	498.03082	687.15735	2.93301	584.46643	-30.31585	755.51404	-949.47223	
5273	52.720	-812.95209	13.68133	-639.81805	759.37238	17.84933	-632.87451	-730.08856	0.11228	497.90439	687.30310	3.62889	584.35040	-30.59422	754.89612	-950.55469	
5274	52.730	-813.16077	13.58555	-640.13489	759.37262	17.34579	-632.93915	-730.14557	0.58955	497.84879	687.23657	4.30402	584.03473	-29.92997	753.74402	-951.06769	
5275	52.740	-813.10480	12.38465	-640.05450	759.50616	16.77872	-633.08716	-730.06500	0.95786	497.77249	687.31201	4.74121	583.92432	-29.95981	752.89667	-951.75055	
5276	52.750	-813.00421	11.67487	-640.23083	759.56268	16.13413	-633.37775	-730.03735	1.31216	497.63559	687.33099	5.04429	583.73730	-30.26193	751.82953	-952.81531	
5277	52.760	-812.99377	11.31132	-640.43811	759.61786	15.51636	-633.54944	-730.06152	1.74749	497.39160	687.32019	5.46851	583.57208	-30.01205	751.15417	-953.45245	
5278	52.770	-813.09753	11.14952	-640.51007	759.67731	14.89333	-633.55078	-730.04456	2.26930	497.32773	687.42987	6.09517	583.49017	-29.85559	750.13068	-954.02753	
5279	52.780	-812.84857	10.26442	-640.61505	759.64380	14.30148	-633.66876	-729.97040	2.60199	497.34149	687.71490	6.83184	583.36719	-29.64442	749.34412	-954.74878	
5280	52.790	-812.87445	9.50530	-640.75146	759.55255	13.88590	-633.93707	-729.80280	2.91077	497.43945	687.80432	7.30516	583.11774	-29.66622	748.78210	-955.37292	
5281	52.800	-813.02020	8.98711	-640.86627	759.64160	13.53881	-633.97253	-729.74744	3.27574	497.23938	688.00873	7.81535	582.89471	-29.86734	747.99500	-956.00543	
5282	52.810	-813.11365	8.76088	-641.00104	759.65588	12.91802	-634.14093	-729.49347	3.30032	497.04492	688.23700	8.28104	582.82959	-29.99868	746.97229	-956.87128	
5283	52.820	-813.07275	8.44258	-641.11993	759.87097	12.45575	-634.18384	-729.52350	3.56651	496.99698	687.56549	8.01670	582.85175	-29.69877	746.48590	-957.64838	
5284	52.830	-812.86975	7.94239	-641.20294	759.87952	11.96868	-634.26996	-729.66614	4.26779	496.53687	687.67590	8.55657	582.85077	-29.87683	745.85345	-958.15564	
5285	52.840	-812.67438	7.41043	-641.41418	759.81891	11.48734	-634.49957	-729.70880	4.56188	496.76285	687.73224	9.10497	582.71045	-29.59080	745.06799	-958.72693	
5286	52.850	-812.72040	6.78432	-641.62360	759.84674	11.04016	-634.61053	-729.76501	4.93250	496.63821	687.72461	9.46411	582.54083	-29.57468	744.42200	-959.40680	
5287	52.860	-812.76514	6.27476	-641.75787	759.95612	10.68473	-634.72998	-729.79175	5.14340	496.36423	687.91205	10.11051	583.19183	-29.58745	743.78033	-960.06360	
5288	52.870	-812.70581	5.88936	-641.79321	759.98706	10.31107	-634.91058	-729.81604	5.44711	496.09943	687.79706	10.34118	583.22095	-29.83781	743.06189	-960.61432	
5289	52.880	-812.49988	5.38814	-641.86951	760.00250	9.84340	-635.00629	-729.65826	5.74722	495.95596	687.98785	10.90057	583.09558	-29.68915	742.53711	-961.12903	
5290	52.890	-812.23700	4.84470	-641.98639	760.00928	9.57236	-635.07062	-729.41382	6.16570	495.89639	687.71777	10.77799	582.71967	-29.65926	741.94916	-961.83173	
5291	52.900	-812.13184	4.35883	-642.12482	760.24261	9.01894	-635.05316	-729.35150	6.49593	495.81189	687.80670	11.11928	582.47668	-29.33238	741.34717	-962.24396	
5292	52.910	-812.01941	4.11488	-642.41272	760.34540	8.51862	-635.13629	-729.25726	6.63620	495.72015	687.83124	11.33467	582.36896	-29.33196	740.72302	-962.66479	
5293	52.920	-812.03583	3.78181	-642.53046	760.11877	8.06277	-635.43225	-729.31946	6.83096	495.68393	687.77411	11.51278	582.25500	-29.40242	740.17242	-963.00500	
5294	52.930	-812.52502	3.74128	-642.30908	760.23383	7.72088	-635.42218	-729.35608	6.96180	495.63757	687.70709	11.73606	582.18134	-29.07551	739.75940	-963.55072	
5295	52.940	-812.42487	3.44990	-642.38202	760.26666	7.53463	-635.47369	-729.34442	7.17818	495.53497	687.80469	12.07152	582.13605	-29.04696	739.22540	-964.04401	
5296	52.950	-812.45502	3.21761	-642.42426	760.15588	7.42800	-635.67981	-729.36871	7.36382	495.40005	687.94568	12.33974	582.09406	-29.18187	738.90497	-964.51733	
5297	52.960	-812.49451	3.01221	-642.48785	760.41016	7.23853	-635.55566	-729.37598	7.58964	495.26904	688.13367	12.60985	582.02209	-29.33870	738.47443	-964.99323	
5298	52.970	-812.32300	2.72400	-642.58099	760.51154	6.94436	-635.55664	-729.30573	7.71922	495.19559	688.17487	12.73356	581.99237	-29.45243	738.17285	-965.27325	
5299	52.980	-812.21820	2.27302	-642.65271	760.61072	6.59563	-635.59802	-729.19818	7.87647	495.13391	688.20679	13.03078	581.98688	-29.30370	737.77472	-965.58630	
5300	52.990	-812.07452	1.90060	-642.68835	760.67468	6.39965	-635.63776	-729.02979	8.08850	495.15781	688.11426	13.28914	582.01080	-28.94853	737.27667	-965.85590	
5301	53.000	-811.99243	1.49603	-642.79797	760.78363	6.17966	-635.64630	-728.96991	8.32890	495.17432	688.35828	13.70357	581.84955	-28.98125	736.97314	-966.17499	
5302	53.010	-812.23370	1.71051	-642.91736	760.91718	5.84376	-635.78741	-728.89172	8.53740	495.24347	688.49622	14.03778	581.78815	-29.08754	736.62317	-966.43683	
5303	53.020	-812.16321	1.51613	-642.99896	760.92407	5.58544	-635.91547	-728.81415	8.76603	495.17245	688.49445	14.25383	581.73083	-28.98782	736.37378	-966.74438	
5304	53.030	-811.95709	1.12922	-643.07465	760.80164	5.33684	-636.05328	-728.77747	8.88078	495.10977	688.60376	14.49695	581.73206	-28.83258	735.79266	-966.88452	
5305	53.040	-811.73676	0.78022	-643.05182	760.81586	5.06079	-636.08252	-728.73218	9.04544	495.00653	688.15039	13.84645	581.06744	-28.63770	735.41229	-967.09454	
5306	53.050	-811.67914	0.62720	-643.11700	760.96710	4.85693	-636.05225	-728.68756	9.17491	494.94330	688.20026	13.95973	581.03607	-28.41485	735.10999	-967.48907	
5307	53.060	-811.62079	0.46086	-643.15692	760.97546	4.76878	-636.11560	-728.69830	9.36348	494.88095	688.27313	14.07413	581.01410	-28.36537	734.88300	-967.96899	
5308	53.070	-811.62427	0.43997	-643.16315	761.05206	4.59852	-636.19690	-728.64136	9.44886	494.86633	688.31299	14.09060	580.95343	-28.10242	734.76105	-968.16071	
5309	53.080	-811.47931	0.10916	-643.18024	761.07324	4.40379	-636.29150	-728.57001	9.52254	494.79355	688.41833	14.18614	580.92841	-27.97730	734.61285	-968.41541	
5310	53.090	-811.27130	-0.14780	-643.22125	761.12390	4.25005	-636.29718	-728.47766	9.63897	494.73071	688.46497	14.26117	580.93890	-27.98668	734.32898	-968.61292	
5311	53.100	-811.15302	-0.30632	-643.21332	761.07227	4.18593	-636.47644	-728.36884	9.71767	494.68329	688.54498	14.37616	580.89856	-28.08370	734.09369	-968.78003	
5312	53.110	-811.09058	-0.37676	-643.25293	761.29944	4.11342	-636.34460	-728.33093	9.83634	494.69098	689.02142	14.91182	580.95947	-28.17861	733.97668	-968.93640	
5313	53.120	-811.45520	-0.15015	-643.15063	761.39911	3.97926	-636.31488	-728.22003	9.95369	494.63504	688.62891	14.55008	580.80023	-28.09032	733.64612	-968.93573	
5314	53.130	-811.21851	-0.40357	-643.17126	761.53357	3.85912	-636.36108	-728.15955	10.05485	494.62146	688.84277	14.64288	580.76349	-28.12657	733.58722	-969.11029	
5315	53.140	-811.02826	-0.60602	-643.17249	761.45056	3.72919	-636.51355	-728.02515	10.04171	494.58557	688.90796	14.72218	580.75305	-27.98517	733.31390	-969.08942	
5316	53.150	-810.87384	-0.76640	-643.20978	761.75238	3.58917	-636.47308	-727.81842	10.03583	494.51028	689.04388	14.81689	580.71948	-27.86789	733.08594	-969.07526	
5317	53.160	-810.66357	-0.95615	-643.28729	761.83008	3.50799	-636.51807	-727.70020	10.11457	494.49014	689.16418	14.98719	580.69678	-27.77422	732.96088	-969.13373	
